<?xml version="1.0" encoding="utf-8"?>
<!-- Generator: Adobe Illustrator 19.0.0, SVG Export Plug-In . SVG Version: 6.00 Build 0)  -->
<svg version="1.1" xmlns="http://www.w3.org/2000/svg" xmlns:xlink="http://www.w3.org/1999/xlink" x="0px" y="0px"
	 viewBox="0 0 573.6 551.2" style="enable-background:new 0 0 573.6 551.2;" xml:space="preserve">
<style type="text/css">
	.st0{fill:#C0392B;stroke:#2C3E50;stroke-width:7;stroke-miterlimit:10;}
	.st1{fill:none;}
	.st2{fill:#ECF0F1;stroke:#2C3E50;stroke-width:2;stroke-miterlimit:10;}
	.st3{font-family:'Arial-Black';}
	.st4{font-size:45px;}
	.st5{fill:#16A085;stroke:#ECF0F1;stroke-width:7;stroke-miterlimit:10;}
	.st6{fill:#ECF0F1;stroke:#2C3E50;stroke-width:7;stroke-miterlimit:10;}
	.st7{fill:none;stroke:#2C3E50;stroke-width:7;stroke-miterlimit:10;}
	.st8{fill:#2ECC71;stroke:#2C3E50;stroke-width:4;stroke-miterlimit:10;}
	.st9{fill:#ECF0F1;stroke:#2C3E50;stroke-width:4;stroke-miterlimit:10;}
	.st10{fill:#E74C3C;stroke:#2C3E50;stroke-width:4;stroke-miterlimit:10;}
	.st11{fill:#4AA3DF;}
	.st12{fill:none;stroke:#2C3E50;stroke-width:4;stroke-miterlimit:10;}
	.st13{fill:#F1C40F;stroke:#2C3E50;stroke-width:4;stroke-miterlimit:10;}
</style>
<g id="Livello_10">
</g>
<g id="Livello_1">
	<circle id="XMLID_1_" class="st0" cx="282.2" cy="273.1" r="250"/>
</g>
<g id="Livello_16">
	<circle id="XMLID_53_" class="st1" cx="282.2" cy="268.1" r="240"/>
	<text id="XMLID_54_" transform="matrix(0.2462 0.9692 -0.9692 0.2462 47.7142 320.1328)"><tspan x="0" y="0" class="st2 st3 st4"> </tspan><tspan x="16.4" y="0" class="st2 st3 st4" rotate="-3.9"> </tspan><tspan x="32.7" y="-1.2" class="st2 st3 st4" rotate="-7.9"> </tspan><tspan x="48.9" y="-3.5" class="st2 st3 st4" rotate="-11.8"> </tspan><tspan x="64.9" y="-6.9" class="st2 st3 st4" rotate="-15.7"> </tspan><tspan x="80.7" y="-11.4" class="st2 st3 st4" rotate="-19.6"> </tspan><tspan x="96" y="-16.9" class="st2 st3 st4" rotate="-23.5"> </tspan><tspan x="111" y="-23.5" class="st2 st3 st4" rotate="-27.4"> </tspan><tspan x="125.5" y="-31" class="st2 st3 st4" rotate="-31.3"> </tspan><tspan x="139.5" y="-39.6" class="st2 st3 st4" rotate="-35.2"> </tspan><tspan x="152.8" y="-49" class="st2 st3 st4" rotate="-39"> </tspan><tspan x="165.5" y="-59.4" class="st2 st3 st4" rotate="-42.9"> </tspan><tspan x="178.6" y="-70.8" class="st2 st3 st4" rotate="-49.8">G</tspan><tspan x="204.6" y="-102.2" class="st2 st3 st4" rotate="-58.9">P</tspan><tspan x="222.7" y="-132.7" class="st2 st3 st4" rotate="-67.5">S</tspan><tspan x="235.4" y="-164.9" class="st2 st3 st4" rotate="-73.6"> </tspan><tspan x="240" y="-180.6" class="st2 st3 st4" rotate="-77.4"> </tspan><tspan x="243.5" y="-196.6" class="st2 st3 st4" rotate="-81.3"> </tspan><tspan x="246" y="-212.9" class="st2 st3 st4" rotate="-85.5">I</tspan><tspan x="247.8" y="-232.6" class="st2 st3 st4" rotate="-92.1">S</tspan></text>
</g>
<g id="Livello_2">
	<path id="XMLID_35_" class="st5" d="M472.2,273.1c0,26.6-5.5,51.9-15.3,74.8c-10.9,25.4-27.1,47.9-47.3,66.1
		c-33.7,30.5-78.4,49-127.4,49c-104.9,0-190-85.1-190-190s85.1-190,190-190c38.7,0,74.7,11.6,104.7,31.4
		c20.6,13.7,38.5,31.2,52.4,51.7C460,196.7,472.2,233.5,472.2,273.1z"/>
</g>
<g id="Livello_4">
	<path id="XMLID_26_" class="st6" d="M456.9,348c-10.9,25.4-27.1,47.9-47.3,66.1c-4.4-2-8.4-4.9-12.2-8.6
		c-8.2-8.2-12.3-18-12.3-29.4c0-4.5,1-9.3,3-14.5l-63-45.4c-12.2,12.4-26.8,18.6-43.9,18.6s-31.9-6.1-44.1-18.4
		c-12.3-12.3-18.4-27-18.4-44.1c0-2.2,0.4-5.5,1.1-9.7l-49.9-16.4c-4,3.5-8.4,5.2-13.4,5.2c-6,0-10.9-2-14.9-6.1c-4-4.1-6-9-6-14.7
		c0-5.7,2-10.6,6-14.5c4-4,8.9-6,14.9-6c5,0,9.2,1.5,12.7,4.7c3.5,3.1,5.8,7,7.1,11.7l50.3,16.8c5.2-10.2,12.7-18.2,22.5-24.2
		c9.8-6,20.5-8.9,32.2-8.9c12.9,0,24.8,3.9,35.8,11.5l74.1-74.1c-4-7.5-6-14.3-6-20.5c0-4.3,0.6-8.4,1.8-12.3
		c20.6,13.7,38.5,31.2,52.4,51.7c-4,1.3-8.3,1.9-12.8,1.9c-6.5,0-13.3-2.1-20.5-6.3l-74.1,74.5c7.7,10.9,11.5,22.9,11.5,35.8
		c0,9.2-2.1,18.2-6.3,27.2l63,45.1c8.2-6.5,17-9.7,26.4-9.7c11.4,0,21.2,4.1,29.4,12.3C456.2,347.3,456.6,347.7,456.9,348z"/>
</g>
<g id="Livello_12">
	<path id="XMLID_20_" class="st7" d="M472.2,273.1c0,26.6-5.5,51.9-15.3,74.8c-10.9,25.4-27.1,47.9-47.3,66.1
		c-33.7,30.5-78.4,49-127.4,49c-104.9,0-190-85.1-190-190s85.1-190,190-190c38.7,0,74.7,11.6,104.7,31.4
		c20.6,13.7,38.5,31.2,52.4,51.7C460,196.7,472.2,233.5,472.2,273.1z"/>
</g>
<g id="Livello_15">
	<path id="XMLID_48_" class="st1" d="M481.5,256.9c2.3,27.9-1.3,54.9-9.7,79.8c-9.2,27.5-24.4,52.5-44,73.4
		c-32.8,34.9-78,58.1-129.5,62.3c-110.1,9-206.6-73-215.6-183.1S155.9,82.8,266,73.8c40.6-3.3,79.3,5.8,112.5,24
		c22.8,12.6,43,29.5,59.4,49.7C462.3,177.8,478.1,215.3,481.5,256.9z"/>
	<text id="XMLID_49_" transform="matrix(-3.097328e-03 -1 1 -3.097328e-03 82.2128 292.2592)"><tspan x="0" y="0" class="st2 st3 st4">K</tspan><tspan x="36.2" y="-0.1" class="st2 st3 st4" rotate="10.4">N</tspan><tspan x="71.8" y="6.3" class="st2 st3 st4" rotate="20.8">O</tspan><tspan x="105.8" y="18.6" class="st2 st3 st4" rotate="32.1">W</tspan><tspan x="142.4" y="42.3" class="st2 st3 st4" rotate="42.4">L</tspan><tspan x="163.9" y="61.7" class="st2 st3 st4" rotate="51">E</tspan><tspan x="183.7" y="85.9" class="st2 st3 st4" rotate="60.3">D</tspan><tspan x="200.6" y="115.1" class="st2 st3 st4" rotate="70.4">G</tspan><tspan x="212.7" y="149.3" class="st2 st3 st4" rotate="80.1">E</tspan><tspan x="217.7" y="180.5" class="st2 st3 st4" rotate="86.5"> </tspan><tspan x="219.6" y="194.4" class="st2 st3 st4" rotate="94.4">M</tspan><tspan x="216.2" y="235.4" class="st2 st3 st4" rotate="105.2">A</tspan><tspan x="207.6" y="268" class="st2 st3 st4" rotate="115.2">N</tspan><tspan x="192.2" y="300.8" class="st2 st3 st4" rotate="125.2">A</tspan><tspan x="172.9" y="328.5" class="st2 st3 st4" rotate="135.1">G</tspan><tspan x="147.2" y="354" class="st2 st3 st4" rotate="144.7">E</tspan><tspan x="122" y="372.5" class="st2 st3 st4" rotate="155.1">M</tspan><tspan x="84.5" y="389.6" class="st2 st3 st4" rotate="165.5">E</tspan><tspan x="54.3" y="397.5" class="st2 st3 st4" rotate="174.5">N</tspan><tspan x="18.2" y="400.7" class="st2 st3 st4" rotate="-175.3">T</tspan></text>
</g>
<g id="Livello_5">
	<path id="XMLID_25_" class="st8" d="M312.9,105.6h-31.5c-4.3,0-7.8,3.5-7.8,7.9l0,63c0,4.3,3.5,7.9,7.8,7.9h47.3
		c4.3,0,7.9-3.5,7.9-7.9v-47.3L312.9,105.6z M320.8,168.6h-31.5v-7.9h31.5V168.6z M320.8,152.9h-31.5V145h31.5V152.9z M309,134.5
		v-19.9l19.3,19.9H309z"/>
</g>
<g id="Livello_6">
	<path id="XMLID_22_" class="st9" d="M414.1,282.1H373v8.2h41.2V282.1z M438.8,249.2H373v8.2h65.9V249.2z M373,273.9h65.9v-8.2H373
		V273.9z M373,232.7v8.2h65.9v-8.2H373z"/>
</g>
<g id="Livello_7">
	<path id="XMLID_36_" class="st10" d="M324.2,369.2h-14.1v-7c0-1.9-0.8-3.7-2.1-5c-1.3-1.3-3-2.1-5-2.1H289c-3.9,0-7,3.2-7,7v7
		h-14.1c-3.9,0-7,3.2-7,7v38.7c0,3.9,3.2,7,7,7h56.4c3.9,0,7-3.2,7-7v-38.7C331.2,372.3,328.1,369.2,324.2,369.2z M289,362.1h14.1v7
		H289V362.1z M292.5,409.7l-3.5-3.5l10.6-10.6L289,385l3.5-3.5l14.1,14.1L292.5,409.7z"/>
</g>
<g id="Livello_8">
	<g id="XMLID_34_">
		<path id="XMLID_52_" class="st11" d="M224.2,356.1l-30.4-30.4c3-7.7,1.3-16.7-5-23c-6.7-6.7-16.7-8-24.7-4.3l14.4,14.4l-10,10
			l-14.7-14.4c-4,8-2.3,18,4.3,24.7c6.3,6.3,15.4,8,23,5l30.4,30.4c1.3,1.3,3.3,1.3,4.7,0l7.7-7.7
			C225.5,359.5,225.5,357.1,224.2,356.1z"/>
		<path id="XMLID_51_" class="st12" d="M224.2,356.1l-30.4-30.4c3-7.7,1.3-16.7-5-23c-6.7-6.7-16.7-8-24.7-4.3l14.4,14.4l-10,10
			l-14.7-14.4c-4,8-2.3,18,4.3,24.7c6.3,6.3,15.4,8,23,5l30.4,30.4c1.3,1.3,3.3,1.3,4.7,0l7.7-7.7
			C225.5,359.5,225.5,357.1,224.2,356.1z"/>
	</g>
</g>
<g id="Livello_9">
	<path id="XMLID_46_" class="st13" d="M175.6,192l5,5l6.4-6.4l-5-5L175.6,192z M202.2,206h7.1v-10.5h-7.1V206z M177.2,163.4h-10.7
		v7.1h10.7V163.4z M216.4,148.4v-17.1H195v17.1c-6.4,3.7-10.7,10.6-10.7,18.5c0,11.8,9.6,21.4,21.4,21.4c11.8,0,21.4-9.6,21.4-21.4
		C227.1,159,222.8,152.1,216.4,148.4z M234.3,163.4v7.1h10.7v-7.1H234.3z M224.4,190.7l6.4,6.4l5-5l-6.4-6.4L224.4,190.7z"/>
</g>
<g id="Livello_11">
	<path id="XMLID_33_" class="st1" d="M256,249.1h48v48h-48V249.1z"/>
	<path id="XMLID_32_" class="st9" d="M305.2,288.9c-2.9,0-5.5,1.1-7.5,2.9L270.4,276c0.2-0.9,0.3-1.8,0.3-2.7c0-0.9-0.2-1.8-0.3-2.7
		l27-15.7c2.1,1.9,4.8,3.1,7.8,3.1c6.4,0,11.5-5.1,11.5-11.5s-5.1-11.5-11.5-11.5s-11.5,5.1-11.5,11.5c0,0.9,0.2,1.8,0.3,2.7
		l-27,15.7c-2.1-1.9-4.8-3.1-7.8-3.1c-6.4,0-11.5,5.1-11.5,11.5s5.1,11.5,11.5,11.5c3,0,5.7-1.2,7.8-3.1l27.3,15.9
		c-0.2,0.8-0.3,1.6-0.3,2.5c0,6.2,5,11.2,11.2,11.2c6.2,0,11.2-5,11.2-11.2C316.3,293.9,311.3,288.9,305.2,288.9z"/>
</g>
</svg>
